$MeshFormat
2.2 0 8
$EndMeshFormat
$Nodes
415
1 1 0 0
2 0.9878719541162122 0.03881768465420776 0
3 0.9605770566970984 0.06950347030326047 0
4 0.9298587411371527 0.09197918294743031 0
5 0.8966778692085537 0.1106709082346192 0
6 0.8582068435689038 0.1283260041971957 0
7 0.8187071189130184 0.1435528329224873 0
8 0.7785805993442799 0.1568861550465619 0
9 0.7379812193692156 0.1687053125753465 0
10 0.6964629422389808 0.1793981901538833 0
11 0.6546733992751066 0.1889779650319014 0
12 0.6126783760258866 0.1975830849842482 0
13 0.5705149223110291 0.2053218089092767 0
14 0.5268659190577736 0.2124871030403092 0
15 0.4830986980973707 0.2188914753788715 0
16 0.4392360776377005 0.2245929189808541 0
17 0.3952931566144124 0.2296387543966901 0
18 0.3521982351935515 0.2339813565124564 0
19 0.309050302231911 0.2377614233178877 0
20 0.2658591136945241 0.2410029734860083 0
21 0.2226320955082683 0.2437256334038335 0
22 0.1797549452841854 0.2459278552296739 0
23 0.1368557304484684 0.247647747446274 0
24 0.09394032744789384 0.2488944574110408 0
25 0.05101390117974561 0.249674485816836 0
26 0.007648174681693966 0.2499926880710762 0
27 -0.03571845249237714 0.2498404731212937 0
28 -0.07908090868664705 0.2492170502144283 0
29 -0.1224339425959137 0.2481191661405388 0
30 -0.1654215892102007 0.2465557363233478 0
31 -0.2083890465786228 0.2445115034699355 0
32 -0.2513305617446904 0.2419753278659183 0
33 -0.2942391680246518 0.2389329550313436 0
34 -0.3376550763565073 0.2353174782887314 0
35 -0.3810206460948607 0.2311416323449563 0
36 -0.424326359310736 0.2263773316823728 0
37 -0.4675589970521911 0.2209904670279282 0
38 -0.5107624153805403 0.2149304764096167 0
39 -0.5538589622237071 0.2081526257888184 0
40 -0.5968278516966998 0.2005923284050112 0
41 -0.6396358630476344 0.1921695154517405 0
42 -0.6814042783800689 0.1829768102460899 0
43 -0.7229266345925235 0.1727312003151009 0
44 -0.7641407578020197 0.1612623836845087 0
45 -0.8049230864821658 0.1483447894366414 0
46 -0.8437467194709843 0.1341853832813843 0
47 -0.8817392019588218 0.1179342983744074 0
48 -0.9185762124046533 0.09881097547980225 0
49 -0.953036669218932 0.07571373188038773 0
50 -0.9790273689259827 0.05093219198961232 0
51 -0.9968210092224861 0.01991838907370574 0
52 -0.9961651851102795 -0.02187310559540332 0
53 -0.9732851340729003 -0.05739993891149648 0
54 -0.9417782628485456 -0.08405864902925506 0
55 -0.9064923174388131 -0.105555577311318 0
56 -0.8696484533278634 -0.1234178794848154 0
57 -0.8316995548319831 -0.1388064863605717 0
58 -0.7888979545038497 -0.1536310550840149 0
59 -0.7455039621069056 -0.1666252986649434 0
60 -0.7017094168185005 -0.1781158145611023 0
61 -0.6576018512257896 -0.1883414129420981 0
62 -0.6141045505412112 -0.1973061708684907 0
63 -0.5704250491760627 -0.2053374148920026 0
64 -0.5266025909113442 -0.212527896881424 0
65 -0.4826611161443727 -0.2189517993420967 0
66 -0.4403320519683388 -0.2244587495523053 0
67 -0.3979278654146621 -0.2293541767014679 0
68 -0.3554619054257385 -0.2336726922683606 0
69 -0.312943730695755 -0.2374429170108869 0
70 -0.2700990733775467 -0.2407081337637698 0
71 -0.2272184272040121 -0.2434609550753127 0
72 -0.1843091024851727 -0.245717082579375 0
73 -0.1413770442239728 -0.247488955734202 0
74 -0.0979957118212519 -0.2487967092407783 0
75 -0.05460261065675249 -0.2496270411671013 0
76 -0.01120310306647649 -0.2499843108179094 0
77 0.03219772608553725 -0.2498703797015215 0
78 0.075658352287964 -0.2492834498278353 0
79 0.1191099323399344 -0.248220268111054 0
80 0.1625471992247154 -0.2466751923106832 0
81 0.2059642476757033 -0.2446398792970217 0
82 0.2490372870344991 -0.2421234743971679 0
83 0.2920775948890253 -0.2390986562284283 0
84 0.3350781639754415 -0.2355475833068086 0
85 0.3780299161566864 -0.2314483450052312 0
86 0.4211511215257443 -0.2267476202793548 0
87 0.464200867507679 -0.2214324889505149 0
88 0.507166031358287 -0.2154620930460108 0
89 0.5500272367538415 -0.2087866792369867 0
90 0.5945976125843117 -0.2010058579850717 0
91 0.6389968457123351 -0.1923023386443997 0
92 0.6831864811905205 -0.1825609884255318 0
93 0.7270974338273701 -0.1716335707476929 0
94 0.7698924042478648 -0.159543427842046 0
95 0.8121988968900931 -0.1458451558782713 0
96 0.8538554571389729 -0.1301275476009009 0
97 0.8944276469036201 -0.1118031709228469 0
98 0.9282204535971378 -0.0930076574548851 0
99 0.9595526814537285 -0.07038228271152451 0
100 0.9875108340217719 -0.03938777783909037 0
101 0.7138514190491747 -0.0002843230601619348 0
102 -0.6431012486220075 0.004419938334871704 0
103 -0.8010880846031315 0.01523153240789697 0
104 0.5549211825310328 -9.622076254708615e-05 0
105 -0.7931721880325359 0.08246934831071569 0
106 -0.8720537754755155 0.03042913676495863 0
107 0.859615304234706 0.04548096574048887 0
108 0.7173902433134158 -0.08337178718427833 0
109 0.7816062571320458 -0.0004876158285549584 0
110 0.5609813691203878 0.1013113201703664 0
111 -0.6395187874922433 0.09669978105612145 0
112 -0.5593085454339051 0.002475026918509746 0
113 -0.5557322489252209 0.1036170659719504 0
114 0.6367540707474009 -0.0001685767708641107 0
115 0.7222998999820173 0.08217878786772249 0
116 0.6434089473229244 0.09283506842640965 0
117 -0.7243958721315544 0.00809019078584162 0
118 -0.7200213731281822 0.08930645000082871 0
119 0.5521674077783189 -0.1022371419204784 0
120 0.6363488036206919 -0.09389886271425053 0
121 -0.8150053011039935 -0.05769571588766547 0
122 -0.8933499358681278 -0.03127454204333182 0
123 0.7951341939748147 0.06790273803746341 0
124 -0.6497538717295342 -0.08937469022592159 0
125 -0.5645551270547915 -0.09937548410617723 0
126 -0.7337301897644286 -0.07603612942037964 0
127 -0.8494585621294233 0.07677395536773746 0
128 0.9099770227121582 -0.0007551081252220601 0
129 0.7923032095894414 -0.06931145807542259 0
130 0.8585627188225089 -0.0470538548248371 0
131 0.8330569486761135 -0.0007220033939057258 0
132 0.4761650440051121 0.1081831695858501 0
133 0.3903190051993356 0.1136286092091076 0
134 0.3043295272850432 0.1178013097280674 0
135 0.2182381783766187 0.1208508927135613 0
136 0.1321706156847578 0.1228556564197154 0
137 0.04602296097892052 0.1238764167238466 0
138 -0.0402929991315781 0.1239418015781983 0
139 -0.1265860784795656 0.1230526926480015 0
140 -0.212696266248229 0.1212009186895221 0
141 -0.298721545806621 0.118364496097565 0
142 -0.3847666643562486 0.114506771867238 0
143 -0.4705487613138183 0.1095899309004699 0
144 0.4707771178652803 -4.320991646420414e-05 0
145 0.3855248333475129 -1.535507822420408e-05 0
146 0.2997871842731904 -4.220152086871029e-06 0
147 0.2137902985829386 5.268634284857755e-06 0
148 0.1276404809448778 1.820953442511485e-05 0
149 0.04139304222281025 4.413411092130413e-05 0
150 -0.04489044009037961 8.974113341175959e-05 0
151 -0.1311114417108078 0.0001642656989220468 0
152 -0.2171833533123928 0.000284305279625452 0
153 -0.3030951421750028 0.0004845467320974319 0
154 -0.3888306834720113 0.0008235940863156559 0
155 -0.4743086789676408 0.001412943396671618 0
156 0.4671350477699856 -0.1088768917595335 0
157 0.3815650942844978 -0.1141256791579387 0
158 0.2957148462001148 -0.118160571897735 0
159 0.2096293501270151 -0.1210902914689388 0
160 0.1232842870008352 -0.1229790190351277 0
161 0.03682825787694115 -0.1238640849926936 0
162 -0.0496123340477084 -0.1237600573940712 0
163 -0.1359369977683391 -0.1226570699887029 0
164 -0.2219692269824355 -0.1205303899482603 0
165 -0.3077677804019716 -0.1173089121784418 0
166 -0.3933067538012778 -0.1128813608082987 0
167 -0.4787810351230445 -0.1070339003617543 0
168 -0.0927746659080238 -0.1232085636913871 0
169 -0.138657020996156 -0.1850730128614524 0
170 -0.05210747235223046 -0.1866935492805863 0
171 -0.09538518886463787 -0.1860026364660827 0
172 0.392806080906874 0.1716336818028989 0
173 0.4332420246022238 0.1109058893974788 0
174 0.4796318710512414 0.1635373224823608 0
175 0.4362390511199621 0.1677494041891665 0
176 -0.001748698933784681 6.693762216653186e-05 0
177 -0.04725138706904403 -0.06183515813032974 0
178 -0.006392038085383633 -0.1238120711933824 0
179 0.03911065004987571 -0.06190997544088617 0
180 -0.004070368509584171 -0.06187256678560794 0
181 -0.1741473975116003 0.0002242854892737494 0
182 -0.2195762901474142 -0.06012304233431744 0
183 -0.1789531123753874 -0.1215937299684816 0
184 -0.1335242197395735 -0.06124640214489041 0
185 -0.1765502549434939 -0.06068472223960392 0
186 -0.08800094090059371 0.0001270034161669032 0
187 -0.09038780340430874 -0.06154078013761007 0
188 0.04851843107933307 0.1867754512703413 0
189 0.08909678833183918 0.123366036571781 0
190 0.1345131730666131 0.1852517019329947 0
191 0.09151855788986651 0.1861302469914109 0
192 0.1707153897639082 1.17390843549863e-05 0
193 0.1254623839728565 -0.06148040475035128 0
194 0.1664568185639251 -0.1220346552520332 0
195 0.2117098243549768 -0.06054251141732699 0
196 0.1685861041639167 -0.06101145808383912 0
197 0.08005627243888819 -0.1234215520139107 0
198 0.03451299198123919 -0.1868672323471076 0
199 0.1211971096703848 -0.1855996435730908 0
200 0.07785731236342609 -0.186352500920873 0
201 -0.431569681219826 0.001118268741493637 0
202 -0.4765448570453426 -0.05281047848254132 0
203 -0.4360438944621612 -0.1099576305850265 0
204 -0.3910687186366446 -0.05602888336099151 0
205 -0.4338067878409935 -0.05441968092176641 0
206 0.252672098163565 -0.1196254316833369 0
207 0.2077967989013592 -0.1828650853829802 0
208 0.2938962205445701 -0.1786296140630817 0
209 0.250854692599032 -0.1808744530402524 0
210 -0.2105426564134258 0.1828562110797288 0
211 -0.1696411723638973 0.1221268056687618 0
212 -0.1245100105377396 0.1855859293942701 0
213 -0.167531380787049 0.1843412709960548 0
214 0.5096512277741523 -0.1055570168400059 0
215 0.4656679576388323 -0.1651546903550242 0
216 0.5510973222660802 -0.1555119105787325 0
217 0.5084086295662196 -0.1605095549430084 0
218 0.3879219192734242 0.05680662706544171 0
219 0.4281509756063966 -2.928249734420411e-05 0
220 0.4734710809351962 0.05406997983469293 0
221 0.4306965001043103 0.05543830345006732 0
222 -0.3417441050814349 0.1164356339824015 0
223 -0.38679867391413 0.05766518297677684 0
224 -0.3459629128235071 0.0006540704092065438 0
225 -0.3009083439908119 0.0594245214148312 0
226 -0.343853508952471 0.05854485219580402 0
227 -0.2245938270932238 -0.1819956725117865 0
228 -0.18163110743028 -0.1836554062739283 0
229 -0.5168086122007729 0.001943985157590682 0
230 -0.5619318362443484 -0.04845022859383374 0
231 -0.521668081088918 -0.1032046922339658 0
232 -0.5192383466448454 -0.05063035353818753 0
233 -0.03800572581197764 0.186891137349746 0
234 0.002864980923671212 0.1239091091510224 0
235 0.005256577802682572 0.1869508986110493 0
236 -0.4690538791830046 0.1652901989641991 0
237 -0.4276577128350335 0.112048351383854 0
238 -0.3828936552255547 0.1728242021060972 0
239 -0.4259920360728848 0.1692128415331134 0
240 0.3835449638160053 -0.05707051711808146 0
241 0.4243500710272417 -0.1115012854587361 0
242 0.468956082817633 -0.05446005083799883 0
243 0.4262505233168192 -0.05576528397804013 0
244 0.2567887414280645 5.242410989933632e-07 0
245 0.2977510152366526 -0.05908239602491096 0
246 0.2547304197958147 -0.05981245372111897 0
247 -0.2601392477436978 0.0003844260058614419 0
248 -0.3054314612884872 -0.0584121827231722 0
249 -0.2648685036922035 -0.1189196510633511 0
250 -0.2625038757179507 -0.05926761252874482 0
251 0.3797975052205921 -0.172787012081585 0
252 0.422750596276493 -0.1691244528690454 0
253 -0.008797570575930058 -0.1868981910056459 0
254 0.3473242662421894 0.1157149594685875 0
255 0.3020583557791168 0.05889854478799027 0
256 0.3426560088103516 -9.787615155537553e-06 0
257 0.3449901375262705 0.05785258592671599 0
258 -0.255708906027425 0.1197827073935435 0
259 -0.2149398097803109 0.06074261198457376 0
260 -0.2579240768855614 0.06008356669970248 0
261 -0.08343953880557187 0.1234972471130999 0
262 -0.1288487600951867 0.06160847917346175 0
263 -0.04259171961097885 0.06201577135580503 0
264 -0.08572023985308277 0.06181212526463339 0
265 -0.5131405051195195 0.1066034984362101 0
266 -0.557520397179563 0.05304604644523007 0
267 -0.4724287201407295 0.05550143714857075 0
268 -0.5149745586601462 0.05427374179690041 0
269 -0.6012048970279562 0.003447482626690725 0
270 -0.597625518208732 0.1001584235140359 0
271 -0.6413100180571254 0.05055985969549658 0
272 -0.5994152076183441 0.05180295307036333 0
273 -0.5547956055744641 0.1558848458803844 0
274 -0.6395773252699388 0.144434648253931 0
275 -0.5972266849527159 0.1503753759595236 0
276 0.3386399702423063 -0.1161431255278369 0
277 0.3368590671088739 -0.1758453544173227 0
278 -0.5674900881154272 -0.1523564494990899 0
279 -0.4807210756337086 -0.1629928498519255 0
280 -0.5241353360001311 -0.1578662945576949 0
281 0.7180756595155959 0.04094723240378028 0
282 0.682854423652471 0.08750692814706608 0
283 0.6400815090351626 0.04633324582777277 0
284 0.6753027448982878 -0.0002264499155130227 0
285 0.6790785842753793 0.04364023911577652 0
286 0.602195158221656 0.09707319429838802 0
287 0.5579512758257104 0.05060754970390965 0
288 0.5958376266392169 -0.0001323987667055984 0
289 0.5990163924304365 0.04847039776584122 0
290 0.6490411732990156 0.1409065167291556 0
291 0.5657481457157084 0.1533165645398215 0
292 0.6074367671237714 0.1473281396413181 0
293 0.7301405596756165 0.1254420502215345 0
294 0.6896586829457259 0.1334525591504747 0
295 -0.7214740038603529 0.1310188251579648 0
296 -0.6797700803102127 0.09300311552847508 0
297 -0.6805871793451408 0.1379899628872825 0
298 -0.7222086226298683 0.04869832039333517 0
299 -0.683748560376781 0.006255064560356662 0
300 -0.6817593203434968 0.04962909004441587 0
301 -0.7565967805803591 0.0858878991557722 0
302 -0.7971301363178336 0.04885044035930633 0
303 -0.762741978367343 0.01166086159686929 0
304 -0.7596693794738509 0.04877438037632074 0
305 -0.7990476372573507 0.1154070688736786 0
306 -0.7603687691911893 0.1235751414201404 0
307 -0.39561730960797 -0.1711177687548833 0
308 -0.4381879732152499 -0.1672081900686658 0
309 0.1752043970306883 0.1218532745666384 0
310 0.2204351369424435 0.1822882630586974 0
311 0.1774796711574368 0.1838905648981562 0
312 0.6365514371840464 -0.04703371974255732 0
313 0.6768695234670539 -0.08863532494926443 0
314 0.7156208311812953 -0.04182805512222013 0
315 0.6760861341826707 -0.04443088743238874 0
316 0.6376728246665135 -0.1431006006793251 0
317 0.7222438385703929 -0.1275026789659856 0
318 0.6800280023287872 -0.1355981566873981 0
319 0.5942581056995053 -0.09806800231736446 0
320 0.5944278591419085 -0.1495369301512181 0
321 0.5535442951546758 -0.05116668134151273 0
322 0.5950478661693611 -0.04910020054203502 0
323 -0.8365709300393236 0.0228303345864278 0
324 -0.8827018556718218 -0.0004227026391865925 0
325 -0.8541776184860606 -0.04448512896549865 0
326 -0.8080466928535626 -0.02123209173988425 0
327 -0.845374274262692 -0.01082739718953542 0
328 -0.8999211266534703 -0.0684150596773249 0
329 -0.8233524279679882 -0.09825110112411858 0
330 -0.8619130359069618 -0.08395150422515703 0
331 -0.9450854725453071 -0.00567807648481304 0
332 -0.9489879244282196 -0.04643452809528802 0
333 -0.9125452223472239 0.05307143432267318 0
334 -0.9308646122989024 0.02525474467521287 0
335 0.7477288380906102 -0.0003859694443584466 0
336 0.7883702255534302 0.03370756110445423 0
337 0.7587170469784159 0.07504076295259295 0
338 0.7532229425345132 0.03732739675411725 0
339 0.8069206564439164 0.1057277854799753 0
340 0.768648823161348 0.1159634589995774 0
341 0.8273747491047603 0.05669185188897614 0
342 0.8781465867216298 0.07807593698755401 0
343 0.8427907963368322 0.09250892804308593 0
344 0.8842698707673335 -0.02390448147502958 0
345 0.884796163473432 0.02236292880763341 0
346 0.8463361264554097 0.02237948117329157 0
347 0.8458098337493112 -0.02388792910937141 0
348 0.8653029986113716 -0.0007625001508690036 0
349 -0.08126022374610947 0.1863571486637641 0
350 -0.1718942849377488 0.06117554557901776 0
351 0.08451676158384402 3.117182267320949e-05 0
352 0.08228651701136611 -0.06169519009561873 0
353 0.5128491501981566 -6.971533950564515e-05 0
354 0.5112501889861544 -0.05281336608975577 0
355 -0.6071544993921629 -0.09437508716604941 0
356 -0.6536778614776619 -0.1388580515840098 0
357 -0.6106295249666869 -0.1458406290172701 0
358 -0.6464275601757707 -0.04247737594552494 0
359 -0.6041796982100596 -0.04546380226967934 0
360 0.261283852830831 0.1193261012208144 0
361 0.3066899147584771 0.1777813665229775 0
362 0.2635714832626775 0.1801645373534113 0
363 -0.6917420307469815 -0.08270540982315062 0
364 -0.7396170759356671 -0.1213307140426615 0
365 -0.6967257237827411 -0.1304106121921265 0
366 -0.7743677454342111 -0.06686592265402255 0
367 -0.7816328499690304 -0.1102484888690187 0
368 -0.7290630309479915 -0.03397296931726901 0
369 -0.7685548619007772 -0.02760253052857663 0
370 -0.6877452955618812 -0.03822517263139698 0
371 0.1645020088943203 -0.1843549237813582 0
372 0.1299055483148178 0.06143693297707027 0
373 0.2160142384797787 0.06042808067392307 0
374 0.1729598933972982 0.06093250682549667 0
375 0.51857320656275 0.1047472448781082 0
376 0.5227195628102617 0.1586171739592087 0
377 -0.5119514602500299 0.1607669874229134 0
378 -0.3505372671016247 -0.1150951364933703 0
379 -0.348250089962566 -0.05722053304208186 0
380 0.3497612507178704 0.174848157990522 0
381 -0.2964803569156364 0.1786487255644543 0
382 -0.339699590718971 0.1758765561355665 0
383 0.2590362971294478 0.05966331273095667 0
384 0.04370800160086538 0.06196027541738394 0
385 0.08680677495784159 0.0616986041972271 0
386 0.0005581409949432514 0.06198802338659448 0
387 0.5157111783804532 0.05233876476930129 0
388 -0.8607561688024694 0.05360154606634805 0
389 -0.8655988820441225 0.09735412687107241 0
390 -0.8896661906035614 0.07620626077307514 0
391 -0.8213153750809796 0.07962165183922658 0
392 -0.8325310472759819 0.1069035175603054 0
393 -0.8289431525601516 0.0512259932128272 0
394 0.8073316029040796 -0.0006048096112303422 0
395 0.7869547333607436 -0.03489953695198877 0
396 0.8254329642059752 -0.05818265645012985 0
397 0.8163822835550274 -0.0293937330306801 0
398 0.9352770397046282 0.03437418108901921 0
399 0.9073274523052925 0.05717105587753185 0
400 0.9347648520829432 -0.03556869541837328 0
401 0.9651856497470317 -0.0004738236237468158 0
402 0.8173531760044199 0.0280435211388729 0
403 0.8022510532397673 -0.1075783069768469 0
404 0.7548467264514287 -0.07634162262985046 0
405 0.7623695653496467 -0.1179425252359483 0
406 0.7512877822710193 -0.03836379603710446 0
407 -0.4296136970274297 0.05658331006267379 0
408 -0.2535197338860577 0.1808790176297309 0
409 -0.3103557555488633 -0.1773759145946644 0
410 -0.2674837885348751 -0.1798138924135604 0
411 0.340647989526329 -0.05807645657149621 0
412 -0.3529995862636816 -0.1743839143808654 0
413 0.8764951828630645 -0.07942851287384199 0
414 0.9062451621822358 -0.05845606946495733 0
415 0.839644210672474 -0.09415510202551537 0
$EndNodes
$Elements
465
1 15 2 0 1 1
2 1 2 0 1 1 2
3 1 2 0 1 2 3
4 1 2 0 1 3 4
5 1 2 0 1 4 5
6 1 2 0 1 5 6
7 1 2 0 1 6 7
8 1 2 0 1 7 8
9 1 2 0 1 8 9
10 1 2 0 1 9 10
11 1 2 0 1 10 11
12 1 2 0 1 11 12
13 1 2 0 1 12 13
14 1 2 0 1 13 14
15 1 2 0 1 14 15
16 1 2 0 1 15 16
17 1 2 0 1 16 17
18 1 2 0 1 17 18
19 1 2 0 1 18 19
20 1 2 0 1 19 20
21 1 2 0 1 20 21
22 1 2 0 1 21 22
23 1 2 0 1 22 23
24 1 2 0 1 23 24
25 1 2 0 1 24 25
26 1 2 0 1 25 26
27 1 2 0 1 26 27
28 1 2 0 1 27 28
29 1 2 0 1 28 29
30 1 2 0 1 29 30
31 1 2 0 1 30 31
32 1 2 0 1 31 32
33 1 2 0 1 32 33
34 1 2 0 1 33 34
35 1 2 0 1 34 35
36 1 2 0 1 35 36
37 1 2 0 1 36 37
38 1 2 0 1 37 38
39 1 2 0 1 38 39
40 1 2 0 1 39 40
41 1 2 0 1 40 41
42 1 2 0 1 41 42
43 1 2 0 1 42 43
44 1 2 0 1 43 44
45 1 2 0 1 44 45
46 1 2 0 1 45 46
47 1 2 0 1 46 47
48 1 2 0 1 47 48
49 1 2 0 1 48 49
50 1 2 0 1 49 50
51 1 2 0 1 50 51
52 1 2 0 1 51 52
53 1 2 0 1 52 53
54 1 2 0 1 53 54
55 1 2 0 1 54 55
56 1 2 0 1 55 56
57 1 2 0 1 56 57
58 1 2 0 1 57 58
59 1 2 0 1 58 59
60 1 2 0 1 59 60
61 1 2 0 1 60 61
62 1 2 0 1 61 62
63 1 2 0 1 62 63
64 1 2 0 1 63 64
65 1 2 0 1 64 65
66 1 2 0 1 65 66
67 1 2 0 1 66 67
68 1 2 0 1 67 68
69 1 2 0 1 68 69
70 1 2 0 1 69 70
71 1 2 0 1 70 71
72 1 2 0 1 71 72
73 1 2 0 1 72 73
74 1 2 0 1 73 74
75 1 2 0 1 74 75
76 1 2 0 1 75 76
77 1 2 0 1 76 77
78 1 2 0 1 77 78
79 1 2 0 1 78 79
80 1 2 0 1 79 80
81 1 2 0 1 80 81
82 1 2 0 1 81 82
83 1 2 0 1 82 83
84 1 2 0 1 83 84
85 1 2 0 1 84 85
86 1 2 0 1 85 86
87 1 2 0 1 86 87
88 1 2 0 1 87 88
89 1 2 0 1 88 89
90 1 2 0 1 89 90
91 1 2 0 1 90 91
92 1 2 0 1 91 92
93 1 2 0 1 92 93
94 1 2 0 1 93 94
95 1 2 0 1 94 95
96 1 2 0 1 95 96
97 1 2 0 1 96 97
98 1 2 0 1 97 98
99 1 2 0 1 98 99
100 1 2 0 1 99 100
101 1 2 0 1 100 1
102 3 2 0 1 162 168 171 170
103 3 2 0 1 168 163 169 171
104 3 2 0 1 171 169 73 74
105 3 2 0 1 170 171 74 75
106 3 2 0 1 15 16 175 174
107 3 2 0 1 16 17 172 175
108 3 2 0 1 175 172 133 173
109 3 2 0 1 174 175 173 132
110 3 2 0 1 149 176 180 179
111 3 2 0 1 176 150 177 180
112 3 2 0 1 180 177 162 178
113 3 2 0 1 179 180 178 161
114 3 2 0 1 151 181 185 184
115 3 2 0 1 181 152 182 185
116 3 2 0 1 185 182 164 183
117 3 2 0 1 184 185 183 163
118 3 2 0 1 150 186 187 177
119 3 2 0 1 186 151 184 187
120 3 2 0 1 187 184 163 168
121 3 2 0 1 177 187 168 162
122 3 2 0 1 23 24 191 190
123 3 2 0 1 24 25 188 191
124 3 2 0 1 191 188 137 189
125 3 2 0 1 190 191 189 136
126 3 2 0 1 147 192 196 195
127 3 2 0 1 192 148 193 196
128 3 2 0 1 196 193 160 194
129 3 2 0 1 195 196 194 159
130 3 2 0 1 160 197 200 199
131 3 2 0 1 197 161 198 200
132 3 2 0 1 200 198 77 78
133 3 2 0 1 199 200 78 79
134 3 2 0 1 154 201 205 204
135 3 2 0 1 201 155 202 205
136 3 2 0 1 205 202 167 203
137 3 2 0 1 204 205 203 166
138 3 2 0 1 158 206 209 208
139 3 2 0 1 206 159 207 209
140 3 2 0 1 209 207 81 82
141 3 2 0 1 208 209 82 83
142 3 2 0 1 29 30 213 212
143 3 2 0 1 30 31 210 213
144 3 2 0 1 213 210 140 211
145 3 2 0 1 212 213 211 139
146 3 2 0 1 119 214 217 216
147 3 2 0 1 214 156 215 217
148 3 2 0 1 217 215 87 88
149 3 2 0 1 216 217 88 89
150 3 2 0 1 132 173 221 220
151 3 2 0 1 173 133 218 221
152 3 2 0 1 221 218 145 219
153 3 2 0 1 220 221 219 144
154 3 2 0 1 141 222 226 225
155 3 2 0 1 222 142 223 226
156 3 2 0 1 226 223 154 224
157 3 2 0 1 225 226 224 153
158 3 2 0 1 163 183 228 169
159 3 2 0 1 183 164 227 228
160 3 2 0 1 228 227 71 72
161 3 2 0 1 169 228 72 73
162 3 2 0 1 155 229 232 202
163 3 2 0 1 229 112 230 232
164 3 2 0 1 232 230 125 231
165 3 2 0 1 202 232 231 167
166 3 2 0 1 25 26 235 188
167 3 2 0 1 26 27 233 235
168 3 2 0 1 235 233 138 234
169 3 2 0 1 188 235 234 137
170 3 2 0 1 35 36 239 238
171 3 2 0 1 36 37 236 239
172 3 2 0 1 239 236 143 237
173 3 2 0 1 238 239 237 142
174 3 2 0 1 144 219 243 242
175 3 2 0 1 219 145 240 243
176 3 2 0 1 243 240 157 241
177 3 2 0 1 242 243 241 156
178 3 2 0 1 146 244 246 245
179 3 2 0 1 244 147 195 246
180 3 2 0 1 246 195 159 206
181 3 2 0 1 245 246 206 158
182 3 2 0 1 152 247 250 182
183 3 2 0 1 247 153 248 250
184 3 2 0 1 250 248 165 249
185 3 2 0 1 182 250 249 164
186 3 2 0 1 156 241 252 215
187 3 2 0 1 241 157 251 252
188 3 2 0 1 252 251 85 86
189 3 2 0 1 215 252 86 87
190 3 2 0 1 161 178 253 198
191 3 2 0 1 178 162 170 253
192 3 2 0 1 253 170 75 76
193 3 2 0 1 198 253 76 77
194 3 2 0 1 133 254 257 218
195 3 2 0 1 254 134 255 257
196 3 2 0 1 257 255 146 256
197 3 2 0 1 218 257 256 145
198 3 2 0 1 140 258 260 259
199 3 2 0 1 258 141 225 260
200 3 2 0 1 260 225 153 247
201 3 2 0 1 259 260 247 152
202 3 2 0 1 138 261 264 263
203 3 2 0 1 261 139 262 264
204 3 2 0 1 264 262 151 186
205 3 2 0 1 263 264 186 150
206 3 2 0 1 143 265 268 267
207 3 2 0 1 265 113 266 268
208 3 2 0 1 268 266 112 229
209 3 2 0 1 267 268 229 155
210 3 2 0 1 102 269 272 271
211 3 2 0 1 269 112 266 272
212 3 2 0 1 272 266 113 270
213 3 2 0 1 271 272 270 111
214 3 2 0 1 111 270 275 274
215 3 2 0 1 270 113 273 275
216 3 2 0 1 275 273 39 40
217 3 2 0 1 274 275 40 41
218 3 2 0 1 157 276 277 251
219 3 2 0 1 276 158 208 277
220 3 2 0 1 277 208 83 84
221 3 2 0 1 251 277 84 85
222 3 2 0 1 167 231 280 279
223 3 2 0 1 231 125 278 280
224 3 2 0 1 280 278 63 64
225 3 2 0 1 279 280 64 65
226 3 2 0 1 101 281 285 284
227 3 2 0 1 281 115 282 285
228 3 2 0 1 285 282 116 283
229 3 2 0 1 284 285 283 114
230 3 2 0 1 114 283 289 288
231 3 2 0 1 283 116 286 289
232 3 2 0 1 289 286 110 287
233 3 2 0 1 288 289 287 104
234 3 2 0 1 116 290 292 286
235 3 2 0 1 290 11 12 292
236 3 2 0 1 292 12 13 291
237 3 2 0 1 286 292 291 110
238 3 2 0 1 115 293 294 282
239 3 2 0 1 293 9 10 294
240 3 2 0 1 294 10 11 290
241 3 2 0 1 282 294 290 116
242 3 2 0 1 41 42 297 274
243 3 2 0 1 42 43 295 297
244 3 2 0 1 297 295 118 296
245 3 2 0 1 274 297 296 111
246 3 2 0 1 111 296 300 271
247 3 2 0 1 296 118 298 300
248 3 2 0 1 300 298 117 299
249 3 2 0 1 271 300 299 102
250 3 2 0 1 118 301 304 298
251 3 2 0 1 301 105 302 304
252 3 2 0 1 304 302 103 303
253 3 2 0 1 298 304 303 117
254 3 2 0 1 43 44 306 295
255 3 2 0 1 44 45 305 306
256 3 2 0 1 306 305 105 301
257 3 2 0 1 295 306 301 118
258 3 2 0 1 166 203 308 307
259 3 2 0 1 203 167 279 308
260 3 2 0 1 308 279 65 66
261 3 2 0 1 307 308 66 67
262 3 2 0 1 21 22 311 310
263 3 2 0 1 22 23 190 311
264 3 2 0 1 311 190 136 309
265 3 2 0 1 310 311 309 135
266 3 2 0 1 101 284 315 314
267 3 2 0 1 284 114 312 315
268 3 2 0 1 315 312 120 313
269 3 2 0 1 314 315 313 108
270 3 2 0 1 108 313 318 317
271 3 2 0 1 313 120 316 318
272 3 2 0 1 318 316 91 92
273 3 2 0 1 317 318 92 93
274 3 2 0 1 120 319 320 316
275 3 2 0 1 319 119 216 320
276 3 2 0 1 320 216 89 90
277 3 2 0 1 316 320 90 91
278 3 2 0 1 114 288 322 312
279 3 2 0 1 288 104 321 322
280 3 2 0 1 322 321 119 319
281 3 2 0 1 312 322 319 120
282 3 2 0 1 103 323 327 326
283 3 2 0 1 323 106 324 327
284 3 2 0 1 327 324 122 325
285 3 2 0 1 326 327 325 121
286 3 2 0 1 121 325 330 329
287 3 2 0 1 325 122 328 330
288 3 2 0 1 330 328 55 56
289 3 2 0 1 329 330 56 57
290 3 2 0 1 122 331 332 328
291 3 2 0 1 331 51 52 332
292 3 2 0 1 332 52 53 54
293 3 2 0 1 328 332 54 55
294 3 2 0 1 106 333 334 324
295 3 2 0 1 333 49 50 334
296 3 2 0 1 334 50 51 331
297 3 2 0 1 324 334 331 122
298 3 2 0 1 101 335 338 281
299 3 2 0 1 335 109 336 338
300 3 2 0 1 338 336 123 337
301 3 2 0 1 281 338 337 115
302 3 2 0 1 115 337 340 293
303 3 2 0 1 337 123 339 340
304 3 2 0 1 340 339 7 8
305 3 2 0 1 293 340 8 9
306 3 2 0 1 123 341 343 339
307 3 2 0 1 341 107 342 343
308 3 2 0 1 343 342 5 6
309 3 2 0 1 339 343 6 7
310 3 2 0 1 130 344 348 347
311 3 2 0 1 344 128 345 348
312 3 2 0 1 348 345 107 346
313 3 2 0 1 347 348 346 131
314 3 2 0 1 27 28 349 233
315 3 2 0 1 28 29 212 349
316 3 2 0 1 349 212 139 261
317 3 2 0 1 233 349 261 138
318 3 2 0 1 139 211 350 262
319 3 2 0 1 211 140 259 350
320 3 2 0 1 350 259 152 181
321 3 2 0 1 262 350 181 151
322 3 2 0 1 148 351 352 193
323 3 2 0 1 351 149 179 352
324 3 2 0 1 352 179 161 197
325 3 2 0 1 193 352 197 160
326 3 2 0 1 104 353 354 321
327 3 2 0 1 353 144 242 354
328 3 2 0 1 354 242 156 214
329 3 2 0 1 321 354 214 119
330 3 2 0 1 63 278 357 62
331 3 2 0 1 278 125 355 357
332 3 2 0 1 357 355 124 356
333 3 2 0 1 62 357 356 61
334 3 2 0 1 125 230 359 355
335 3 2 0 1 230 112 269 359
336 3 2 0 1 359 269 102 358
337 3 2 0 1 355 359 358 124
338 3 2 0 1 19 20 362 361
339 3 2 0 1 20 21 310 362
340 3 2 0 1 362 310 135 360
341 3 2 0 1 361 362 360 134
342 3 2 0 1 61 356 365 60
343 3 2 0 1 356 124 363 365
344 3 2 0 1 365 363 126 364
345 3 2 0 1 60 365 364 59
346 3 2 0 1 59 364 367 58
347 3 2 0 1 364 126 366 367
348 3 2 0 1 367 366 121 329
349 3 2 0 1 58 367 329 57
350 3 2 0 1 126 368 369 366
351 3 2 0 1 368 117 303 369
352 3 2 0 1 369 303 103 326
353 3 2 0 1 366 369 326 121
354 3 2 0 1 124 358 370 363
355 3 2 0 1 358 102 299 370
356 3 2 0 1 370 299 117 368
357 3 2 0 1 363 370 368 126
358 3 2 0 1 159 194 371 207
359 3 2 0 1 194 160 199 371
360 3 2 0 1 371 199 79 80
361 3 2 0 1 207 371 80 81
362 3 2 0 1 135 309 374 373
363 3 2 0 1 309 136 372 374
364 3 2 0 1 374 372 148 192
365 3 2 0 1 373 374 192 147
366 3 2 0 1 13 14 376 291
367 3 2 0 1 14 15 174 376
368 3 2 0 1 376 174 132 375
369 3 2 0 1 291 376 375 110
370 3 2 0 1 37 38 377 236
371 3 2 0 1 38 39 273 377
372 3 2 0 1 377 273 113 265
373 3 2 0 1 236 377 265 143
374 3 2 0 1 153 224 379 248
375 3 2 0 1 224 154 204 379
376 3 2 0 1 379 204 166 378
377 3 2 0 1 248 379 378 165
378 3 2 0 1 17 18 380 172
379 3 2 0 1 18 19 361 380
380 3 2 0 1 380 361 134 254
381 3 2 0 1 172 380 254 133
382 3 2 0 1 33 34 382 381
383 3 2 0 1 34 35 238 382
384 3 2 0 1 382 238 142 222
385 3 2 0 1 381 382 222 141
386 3 2 0 1 134 360 383 255
387 3 2 0 1 360 135 373 383
388 3 2 0 1 383 373 147 244
389 3 2 0 1 255 383 244 146
390 3 2 0 1 136 189 385 372
391 3 2 0 1 189 137 384 385
392 3 2 0 1 385 384 149 351
393 3 2 0 1 372 385 351 148
394 3 2 0 1 137 234 386 384
395 3 2 0 1 234 138 263 386
396 3 2 0 1 386 263 150 176
397 3 2 0 1 384 386 176 149
398 3 2 0 1 110 375 387 287
399 3 2 0 1 375 132 220 387
400 3 2 0 1 387 220 144 353
401 3 2 0 1 287 387 353 104
402 3 2 0 1 49 333 390 48
403 3 2 0 1 333 106 388 390
404 3 2 0 1 390 388 127 389
405 3 2 0 1 48 390 389 47
406 3 2 0 1 47 389 392 46
407 3 2 0 1 389 127 391 392
408 3 2 0 1 392 391 105 305
409 3 2 0 1 46 392 305 45
410 3 2 0 1 106 323 393 388
411 3 2 0 1 323 103 302 393
412 3 2 0 1 393 302 105 391
413 3 2 0 1 388 393 391 127
414 3 2 0 1 130 347 397 396
415 3 2 0 1 347 131 394 397
416 3 2 0 1 397 394 109 395
417 3 2 0 1 396 397 395 129
418 3 2 0 1 107 345 399 342
419 3 2 0 1 345 128 398 399
420 3 2 0 1 399 398 3 4
421 3 2 0 1 342 399 4 5
422 3 2 0 1 99 100 401 400
423 3 2 0 1 100 1 2 401
424 3 2 0 1 401 2 3 398
425 3 2 0 1 400 401 398 128
426 3 2 0 1 107 341 402 346
427 3 2 0 1 341 123 336 402
428 3 2 0 1 402 336 109 394
429 3 2 0 1 346 402 394 131
430 3 2 0 1 95 403 405 94
431 3 2 0 1 403 129 404 405
432 3 2 0 1 405 404 108 317
433 3 2 0 1 94 405 317 93
434 3 2 0 1 109 335 406 395
435 3 2 0 1 335 101 314 406
436 3 2 0 1 406 314 108 404
437 3 2 0 1 395 406 404 129
438 3 2 0 1 142 237 407 223
439 3 2 0 1 237 143 267 407
440 3 2 0 1 407 267 155 201
441 3 2 0 1 223 407 201 154
442 3 2 0 1 31 32 408 210
443 3 2 0 1 32 33 381 408
444 3 2 0 1 408 381 141 258
445 3 2 0 1 210 408 258 140
446 3 2 0 1 164 249 410 227
447 3 2 0 1 249 165 409 410
448 3 2 0 1 410 409 69 70
449 3 2 0 1 227 410 70 71
450 3 2 0 1 145 256 411 240
451 3 2 0 1 256 146 245 411
452 3 2 0 1 411 245 158 276
453 3 2 0 1 240 411 276 157
454 3 2 0 1 165 378 412 409
455 3 2 0 1 378 166 307 412
456 3 2 0 1 412 307 67 68
457 3 2 0 1 409 412 68 69
458 3 2 0 1 130 413 414 344
459 3 2 0 1 413 97 98 414
460 3 2 0 1 414 98 99 400
461 3 2 0 1 344 414 400 128
462 3 2 0 1 130 396 415 413
463 3 2 0 1 396 129 403 415
464 3 2 0 1 415 403 95 96
465 3 2 0 1 413 415 96 97
$EndElements
